<?xml version="1.0" standalone="no"?>
<!DOCTYPE svg PUBLIC "-//W3C//DTD SVG 20010904//EN"
 "http://www.w3.org/TR/2001/REC-SVG-20010904/DTD/svg10.dtd">
<svg version="1.0" xmlns="http://www.w3.org/2000/svg"
 width="16.000000pt" height="16.000000pt" viewBox="0 0 16.000000 16.000000"
 preserveAspectRatio="xMidYMid meet">
<metadata>
Created by potrace 1.11, written by Peter Selinger 2001-2013
</metadata>
<g transform="translate(0.000000,16.000000) scale(0.005128,-0.005128)"
fill="#000000" stroke="none">
<path d="M1430 2907 c-3 -2 -30 -7 -60 -11 -165 -18 -337 -78 -495 -169 -216
-125 -399 -329 -489 -543 -36 -86 -65 -197 -72 -274 -3 -36 -7 -74 -8 -84 -2
-13 -19 -25 -54 -38 -77 -29 -158 -107 -177 -171 -47 -156 -59 -348 -30 -487
20 -96 78 -247 114 -297 15 -21 53 -53 84 -72 64 -38 138 -49 249 -37 l65 7
-33 132 c-64 255 -84 425 -78 666 2 90 6 166 8 170 2 3 6 31 7 61 l3 55 -72
-4 c-40 -1 -72 1 -72 5 0 26 31 119 58 175 140 291 424 510 783 603 623 161
1294 -74 1553 -545 41 -75 86 -190 86 -221 0 -20 -3 -21 -71 -15 l-70 6 8 -82
c4 -45 8 -181 7 -302 0 -243 -10 -320 -69 -558 -20 -77 -33 -142 -31 -145 3
-2 51 -6 108 -9 113 -6 156 5 239 63 89 61 179 328 179 528 0 102 -40 303 -70
351 -28 46 -112 109 -169 128 l-44 14 -4 64 c-11 192 -105 414 -248 589 -170
208 -442 365 -736 426 -71 14 -389 32 -399 21z"/>
<path d="M1386 2334 c-291 -52 -549 -230 -702 -484 -21 -36 -39 -67 -40 -70 0
-3 -10 -26 -22 -52 -27 -60 -61 -176 -70 -236 -15 -101 -6 -313 17 -402 12
-47 26 -94 30 -105 77 -174 135 -266 228 -361 210 -213 470 -319 763 -310 130
4 148 7 240 32 368 102 632 370 731 744 19 71 23 110 23 240 -1 135 -4 167
-27 253 -104 388 -414 676 -808 750 -98 18 -262 19 -363 1z"/>
</g>
</svg>
